<mxfile host="app.diagrams.net" modified="2021-04-06T05:10:55.536Z" agent="5.0 (Windows NT 10.0; Win64; x64) AppleWebKit/537.36 (KHTML, like Gecko) Chrome/89.0.4389.114 Safari/537.36 Edg/89.0.774.68" etag="HHsinZWWhUYR7Vzzc5cC" version="14.5.7" type="github">
  <diagram id="CGB0VBX0naNHbwZJyd2p" name="Page-1">
    <mxGraphModel dx="590" dy="377" grid="1" gridSize="10" guides="1" tooltips="1" connect="1" arrows="1" fold="1" page="1" pageScale="1" pageWidth="827" pageHeight="1169" math="0" shadow="0">
      <root>
        <mxCell id="0" />
        <mxCell id="1" parent="0" />
        <mxCell id="YZH6jja684JBuhx8ybSd-1" value="" style="endArrow=classic;html=1;fillColor=#dae8fc;strokeColor=#6c8ebf;sketch=1;" edge="1" parent="1">
          <mxGeometry width="50" height="50" relative="1" as="geometry">
            <mxPoint x="120" y="240" as="sourcePoint" />
            <mxPoint x="410" y="240" as="targetPoint" />
          </mxGeometry>
        </mxCell>
        <mxCell id="YZH6jja684JBuhx8ybSd-2" value="" style="endArrow=classic;html=1;fillColor=#dae8fc;strokeColor=#6c8ebf;sketch=1;" edge="1" parent="1">
          <mxGeometry width="50" height="50" relative="1" as="geometry">
            <mxPoint x="130" y="250" as="sourcePoint" />
            <mxPoint x="130" y="150" as="targetPoint" />
          </mxGeometry>
        </mxCell>
        <mxCell id="YZH6jja684JBuhx8ybSd-4" value="" style="endArrow=none;dashed=1;html=1;strokeWidth=1;fillColor=#f8cecc;strokeColor=#b85450;sketch=0;shadow=0;" edge="1" parent="1">
          <mxGeometry width="50" height="50" relative="1" as="geometry">
            <mxPoint x="120" y="197" as="sourcePoint" />
            <mxPoint x="400" y="197" as="targetPoint" />
          </mxGeometry>
        </mxCell>
        <mxCell id="YZH6jja684JBuhx8ybSd-8" value="" style="verticalLabelPosition=bottom;verticalAlign=top;html=1;shape=mxgraph.basic.orthogonal_triangle;rotation=-90;fillColor=#dae8fc;strokeColor=#6c8ebf;sketch=1;shadow=0;" vertex="1" parent="1">
          <mxGeometry x="133" y="187" width="47.5" height="60" as="geometry" />
        </mxCell>
        <mxCell id="YZH6jja684JBuhx8ybSd-11" value="" style="verticalLabelPosition=bottom;verticalAlign=top;html=1;shape=mxgraph.basic.orthogonal_triangle;rotation=-90;fillColor=#dae8fc;strokeColor=#6c8ebf;sketch=1;shadow=0;" vertex="1" parent="1">
          <mxGeometry x="190" y="187" width="47.5" height="60" as="geometry" />
        </mxCell>
        <mxCell id="YZH6jja684JBuhx8ybSd-12" value="" style="verticalLabelPosition=bottom;verticalAlign=top;html=1;shape=mxgraph.basic.orthogonal_triangle;rotation=-90;fillColor=#dae8fc;strokeColor=#6c8ebf;sketch=1;shadow=0;" vertex="1" parent="1">
          <mxGeometry x="250" y="187" width="47.5" height="60" as="geometry" />
        </mxCell>
        <mxCell id="YZH6jja684JBuhx8ybSd-13" value="" style="verticalLabelPosition=bottom;verticalAlign=top;html=1;shape=mxgraph.basic.orthogonal_triangle;rotation=-90;fillColor=#dae8fc;strokeColor=#6c8ebf;sketch=1;shadow=0;" vertex="1" parent="1">
          <mxGeometry x="310" y="187" width="47.5" height="60" as="geometry" />
        </mxCell>
        <mxCell id="YZH6jja684JBuhx8ybSd-14" value="&lt;font style=&quot;font-size: 11px&quot;&gt;Threshold&lt;/font&gt;" style="text;html=1;strokeColor=none;fillColor=none;align=center;verticalAlign=middle;whiteSpace=wrap;rounded=0;shadow=0;sketch=1;fontSize=6;glass=1;" vertex="1" parent="1">
          <mxGeometry x="410" y="187" width="40" height="20" as="geometry" />
        </mxCell>
        <mxCell id="YZH6jja684JBuhx8ybSd-19" value="&lt;font style=&quot;font-size: 11px&quot;&gt;Time&lt;/font&gt;" style="text;html=1;strokeColor=none;fillColor=none;align=center;verticalAlign=middle;whiteSpace=wrap;rounded=0;shadow=0;sketch=1;fontSize=6;glass=1;" vertex="1" parent="1">
          <mxGeometry x="410" y="227" width="40" height="20" as="geometry" />
        </mxCell>
        <mxCell id="YZH6jja684JBuhx8ybSd-20" value="&lt;font style=&quot;font-size: 11px&quot;&gt;Window Size&lt;/font&gt;" style="text;html=1;strokeColor=none;fillColor=none;align=center;verticalAlign=middle;whiteSpace=wrap;rounded=0;shadow=0;sketch=1;fontSize=6;glass=1;" vertex="1" parent="1">
          <mxGeometry x="80" y="130" width="90" height="20" as="geometry" />
        </mxCell>
      </root>
    </mxGraphModel>
  </diagram>
</mxfile>
